<mxfile host="app.diagrams.net" modified="2023-04-18T06:31:51.766Z" agent="Mozilla/5.0 (Macintosh; Intel Mac OS X 10_15_7) AppleWebKit/537.36 (KHTML, like Gecko) Chrome/112.0.0.0 Safari/537.36" etag="LRWOpECdaPHwZVR3ktk6" version="21.1.4" type="device">
  <diagram name="Page-1" id="iCMivW55u0UveHMKw1IY">
    <mxGraphModel dx="1306" dy="836" grid="1" gridSize="10" guides="1" tooltips="1" connect="1" arrows="1" fold="1" page="1" pageScale="1" pageWidth="827" pageHeight="1169" math="0" shadow="0">
      <root>
        <mxCell id="0" />
        <mxCell id="1" parent="0" />
        <mxCell id="57qyamcasgCEb0zqbsqx-1" value="&lt;b&gt;1&lt;/b&gt;&lt;br&gt;ClientId, Secret, Audience,&lt;br&gt;grantType (in this case client credentials)" style="text;html=1;strokeColor=none;fillColor=none;align=center;verticalAlign=middle;whiteSpace=wrap;rounded=0;" vertex="1" parent="1">
          <mxGeometry x="260" y="260" width="60" height="110" as="geometry" />
        </mxCell>
        <mxCell id="57qyamcasgCEb0zqbsqx-2" value="Client" style="rounded=1;whiteSpace=wrap;html=1;fillColor=#d5e8d4;strokeColor=#82b366;" vertex="1" parent="1">
          <mxGeometry x="80" y="360" width="120" height="70" as="geometry" />
        </mxCell>
        <mxCell id="57qyamcasgCEb0zqbsqx-3" value="" style="endArrow=classic;html=1;rounded=0;exitX=1;exitY=0.5;exitDx=0;exitDy=0;entryX=0;entryY=0.5;entryDx=0;entryDy=0;" edge="1" parent="1" source="57qyamcasgCEb0zqbsqx-2" target="57qyamcasgCEb0zqbsqx-5">
          <mxGeometry width="50" height="50" relative="1" as="geometry">
            <mxPoint x="390" y="440" as="sourcePoint" />
            <mxPoint x="370" y="390" as="targetPoint" />
          </mxGeometry>
        </mxCell>
        <mxCell id="57qyamcasgCEb0zqbsqx-12" value="API POST {domain}/oauth/token" style="edgeLabel;html=1;align=center;verticalAlign=middle;resizable=0;points=[];" vertex="1" connectable="0" parent="57qyamcasgCEb0zqbsqx-3">
          <mxGeometry x="0.0001" y="-1" relative="1" as="geometry">
            <mxPoint as="offset" />
          </mxGeometry>
        </mxCell>
        <mxCell id="57qyamcasgCEb0zqbsqx-5" value="Auth0" style="rounded=1;whiteSpace=wrap;html=1;fillColor=#fff2cc;strokeColor=#d6b656;" vertex="1" parent="1">
          <mxGeometry x="480" y="360" width="120" height="60" as="geometry" />
        </mxCell>
        <mxCell id="57qyamcasgCEb0zqbsqx-7" value="" style="endArrow=classic;html=1;rounded=0;" edge="1" parent="1" source="57qyamcasgCEb0zqbsqx-5">
          <mxGeometry width="50" height="50" relative="1" as="geometry">
            <mxPoint x="480" y="600" as="sourcePoint" />
            <mxPoint x="200" y="420" as="targetPoint" />
            <Array as="points">
              <mxPoint x="300" y="420" />
            </Array>
          </mxGeometry>
        </mxCell>
        <mxCell id="57qyamcasgCEb0zqbsqx-10" value="Access Token" style="edgeLabel;html=1;align=center;verticalAlign=middle;resizable=0;points=[];" vertex="1" connectable="0" parent="57qyamcasgCEb0zqbsqx-7">
          <mxGeometry x="-0.1257" y="-1" relative="1" as="geometry">
            <mxPoint x="-17" as="offset" />
          </mxGeometry>
        </mxCell>
        <mxCell id="57qyamcasgCEb0zqbsqx-11" value="API GET api/private/hello" style="endArrow=classic;html=1;rounded=0;exitX=0.5;exitY=1;exitDx=0;exitDy=0;" edge="1" parent="1" source="57qyamcasgCEb0zqbsqx-2">
          <mxGeometry width="50" height="50" relative="1" as="geometry">
            <mxPoint x="140" y="560" as="sourcePoint" />
            <mxPoint x="480" y="560" as="targetPoint" />
            <Array as="points">
              <mxPoint x="140" y="560" />
            </Array>
            <mxPoint as="offset" />
          </mxGeometry>
        </mxCell>
        <mxCell id="57qyamcasgCEb0zqbsqx-14" value="&lt;b&gt;2&lt;/b&gt;&lt;br&gt;Add header&amp;nbsp;&lt;br&gt;&lt;br&gt;Authorization : Bearer TOKEN" style="text;html=1;strokeColor=none;fillColor=none;align=center;verticalAlign=middle;whiteSpace=wrap;rounded=0;" vertex="1" parent="1">
          <mxGeometry x="230" y="450" width="60" height="110" as="geometry" />
        </mxCell>
        <mxCell id="57qyamcasgCEb0zqbsqx-18" value="" style="edgeStyle=orthogonalEdgeStyle;rounded=0;orthogonalLoop=1;jettySize=auto;html=1;startArrow=block;startFill=1;" edge="1" parent="1">
          <mxGeometry relative="1" as="geometry">
            <mxPoint x="540" y="531" as="sourcePoint" />
            <mxPoint x="540" y="421" as="targetPoint" />
          </mxGeometry>
        </mxCell>
        <mxCell id="57qyamcasgCEb0zqbsqx-19" value="&lt;b&gt;3&lt;/b&gt; Retrieves the public key from .well-known endpoint&amp;nbsp;&amp;nbsp;" style="edgeLabel;html=1;align=center;verticalAlign=middle;resizable=0;points=[];" vertex="1" connectable="0" parent="57qyamcasgCEb0zqbsqx-18">
          <mxGeometry x="-0.1182" y="-3" relative="1" as="geometry">
            <mxPoint as="offset" />
          </mxGeometry>
        </mxCell>
        <mxCell id="57qyamcasgCEb0zqbsqx-16" value="APP&lt;br&gt;&lt;b&gt;4&lt;/b&gt; Uses the public key to open the token content + guarantee the token is generated by the idp&lt;br&gt;&lt;br&gt;&lt;b&gt;5&lt;/b&gt; checks the audience and the scopes as needed for the endpoint" style="rounded=1;whiteSpace=wrap;html=1;fillColor=#dae8fc;strokeColor=#6c8ebf;" vertex="1" parent="1">
          <mxGeometry x="480" y="500" width="120" height="170" as="geometry" />
        </mxCell>
        <mxCell id="57qyamcasgCEb0zqbsqx-21" value="" style="endArrow=classic;html=1;rounded=0;exitX=0;exitY=0.75;exitDx=0;exitDy=0;entryX=0.25;entryY=1;entryDx=0;entryDy=0;" edge="1" parent="1" source="57qyamcasgCEb0zqbsqx-16" target="57qyamcasgCEb0zqbsqx-2">
          <mxGeometry width="50" height="50" relative="1" as="geometry">
            <mxPoint x="400" y="560" as="sourcePoint" />
            <mxPoint x="117" y="430" as="targetPoint" />
            <Array as="points">
              <mxPoint x="110" y="628" />
            </Array>
          </mxGeometry>
        </mxCell>
        <mxCell id="57qyamcasgCEb0zqbsqx-22" value="&lt;b&gt;6&lt;/b&gt; Responds to client with &lt;br&gt;business content or 401" style="edgeLabel;html=1;align=center;verticalAlign=middle;resizable=0;points=[];" vertex="1" connectable="0" parent="57qyamcasgCEb0zqbsqx-21">
          <mxGeometry x="0.3636" relative="1" as="geometry">
            <mxPoint x="25" y="32" as="offset" />
          </mxGeometry>
        </mxCell>
        <mxCell id="57qyamcasgCEb0zqbsqx-25" value="" style="endArrow=classic;html=1;rounded=0;entryX=1;entryY=0;entryDx=0;entryDy=0;dashed=1;" edge="1" parent="1">
          <mxGeometry width="50" height="50" relative="1" as="geometry">
            <mxPoint x="721" y="282" as="sourcePoint" />
            <mxPoint x="601" y="362" as="targetPoint" />
          </mxGeometry>
        </mxCell>
        <mxCell id="57qyamcasgCEb0zqbsqx-26" value="The identity provider" style="text;html=1;strokeColor=none;fillColor=none;align=center;verticalAlign=middle;whiteSpace=wrap;rounded=0;" vertex="1" parent="1">
          <mxGeometry x="690" y="250" width="70" height="30" as="geometry" />
        </mxCell>
        <mxCell id="57qyamcasgCEb0zqbsqx-27" value="The resource server" style="text;html=1;strokeColor=none;fillColor=none;align=center;verticalAlign=middle;whiteSpace=wrap;rounded=0;" vertex="1" parent="1">
          <mxGeometry x="720" y="570" width="70" height="30" as="geometry" />
        </mxCell>
        <mxCell id="57qyamcasgCEb0zqbsqx-28" value="" style="endArrow=classic;html=1;rounded=0;entryX=1;entryY=0.5;entryDx=0;entryDy=0;dashed=1;" edge="1" parent="1" source="57qyamcasgCEb0zqbsqx-27" target="57qyamcasgCEb0zqbsqx-16">
          <mxGeometry width="50" height="50" relative="1" as="geometry">
            <mxPoint x="731" y="292" as="sourcePoint" />
            <mxPoint x="611" y="372" as="targetPoint" />
          </mxGeometry>
        </mxCell>
      </root>
    </mxGraphModel>
  </diagram>
</mxfile>
